<svg width="19" height="16" viewBox="0 0 19 16" fill="none" xmlns="http://www.w3.org/2000/svg">
<path d="M7.46937 15.4414L0.719375 8.69138C0.649643 8.62173 0.594322 8.53901 0.556579 8.44796C0.518837 8.35691 0.49941 8.25932 0.49941 8.16076C0.49941 8.06219 0.518837 7.9646 0.556579 7.87355C0.594322 7.7825 0.649643 7.69978 0.719375 7.63013L7.46937 0.880131C7.61011 0.7394 7.80098 0.660339 8 0.660339C8.19902 0.660339 8.38989 0.7394 8.53063 0.880131C8.67136 1.02086 8.75042 1.21173 8.75042 1.41076C8.75042 1.60978 8.67136 1.80065 8.53063 1.94138L3.06031 7.41076L17.75 7.41076C17.9489 7.41076 18.1397 7.48977 18.2803 7.63043C18.421 7.77108 18.5 7.96184 18.5 8.16076C18.5 8.35967 18.421 8.55043 18.2803 8.69109C18.1397 8.83174 17.9489 8.91076 17.75 8.91076L3.06031 8.91076L8.53062 14.3801C8.67136 14.5209 8.75042 14.7117 8.75042 14.9108C8.75042 15.1098 8.67136 15.3007 8.53062 15.4414C8.38989 15.5821 8.19902 15.6612 8 15.6612C7.80098 15.6612 7.6101 15.5821 7.46937 15.4414Z" fill="#FEBD69"/>
</svg>
