<svg width="22" height="23" viewBox="0 0 22 23" fill="none" xmlns="http://www.w3.org/2000/svg">
<path d="M6.7 17.95C5.51213 17.95 4.56075 18.9121 4.56075 20.1C4.56075 21.2879 5.51213 22.25 6.7 22.25C7.88788 22.25 8.85 21.2879 8.85 20.1C8.85 18.9121 7.88788 17.95 6.7 17.95ZM0.25 0.75V2.9H2.4L6.26463 11.0539L4.81337 13.6876C4.64675 13.9994 4.55 14.3488 4.55 14.725C4.55 15.9129 5.51213 16.875 6.7 16.875H19.6V14.725H7.15688C7.00638 14.725 6.88813 14.6068 6.88813 14.4563C6.88813 14.4079 6.89888 14.3649 6.92038 14.3273L7.8825 12.575H15.8913C16.6975 12.575 17.4016 12.1289 17.7725 11.4678L21.6156 4.491C21.7016 4.3405 21.75 4.16313 21.75 3.975C21.75 3.68989 21.6367 3.41646 21.4351 3.21486C21.2335 3.01326 20.9601 2.9 20.675 2.9H4.78113L3.75988 0.75H0.25ZM17.45 17.95C16.2621 17.95 15.3108 18.9121 15.3108 20.1C15.3108 21.2879 16.2621 22.25 17.45 22.25C18.6379 22.25 19.6 21.2879 19.6 20.1C19.6 18.9121 18.6379 17.95 17.45 17.95Z" fill="white" stroke="#FEBD69" />
</svg>
