<svg width="24" height="19" viewBox="0 0 24 19" fill="none" xmlns="http://www.w3.org/2000/svg">
<path d="M24 9.28125C24 9.54647 23.8946 9.80082 23.7071 9.98836C23.5196 10.1759 23.2652 10.2812 23 10.2812H1C0.734784 10.2812 0.48043 10.1759 0.292893 9.98836C0.105357 9.80082 0 9.54647 0 9.28125C0 9.01603 0.105357 8.76168 0.292893 8.57414C0.48043 8.38661 0.734784 8.28125 1 8.28125H23C23.2652 8.28125 23.5196 8.38661 23.7071 8.57414C23.8946 8.76168 24 9.01603 24 9.28125ZM1 2.28125H23C23.2652 2.28125 23.5196 2.17589 23.7071 1.98836C23.8946 1.80082 24 1.54647 24 1.28125C24 1.01603 23.8946 0.76168 23.7071 0.574143C23.5196 0.386607 23.2652 0.28125 23 0.28125H1C0.734784 0.28125 0.48043 0.386607 0.292893 0.574143C0.105357 0.76168 0 1.01603 0 1.28125C0 1.54647 0.105357 1.80082 0.292893 1.98836C0.48043 2.17589 0.734784 2.28125 1 2.28125ZM23 16.2812H1C0.734784 16.2812 0.48043 16.3866 0.292893 16.5741C0.105357 16.7617 0 17.016 0 17.2812C0 17.5465 0.105357 17.8008 0.292893 17.9884C0.48043 18.1759 0.734784 18.2812 1 18.2812H23C23.2652 18.2812 23.5196 18.1759 23.7071 17.9884C23.8946 17.8008 24 17.5465 24 17.2812C24 17.016 23.8946 16.7617 23.7071 16.5741C23.5196 16.3866 23.2652 16.2812 23 16.2812Z" fill="black"/>
</svg>
