<svg width="24" height="19" viewBox="0 0 24 21" fill="none" xmlns="http://www.w3.org/2000/svg">
<path d="M12 20.7857C11.7679 20.7857 11.5714 20.7054 11.4107 20.5447L3.05357 12.4822C2.96429 12.4107 2.84152 12.2947 2.68527 12.1339C2.52902 11.9732 2.28125 11.6808 1.94196 11.2567C1.60268 10.8326 1.29911 10.3973 1.03125 9.9509C0.763393 9.50447 0.524554 8.96429 0.314732 8.33037C0.104911 7.69644 0 7.08037 0 6.48215C0 4.51787 0.566964 2.98215 1.70089 1.87501C2.83482 0.767866 4.40179 0.214294 6.40179 0.214294C6.95536 0.214294 7.52009 0.310277 8.09598 0.502241C8.67188 0.694205 9.20759 0.953134 9.70312 1.27903C10.1987 1.60492 10.625 1.91072 10.9821 2.19644C11.3393 2.48215 11.6786 2.78572 12 3.10715C12.3214 2.78572 12.6607 2.48215 13.0179 2.19644C13.375 1.91072 13.8013 1.60492 14.2969 1.27903C14.7924 0.953134 15.3281 0.694205 15.904 0.502241C16.4799 0.310277 17.0446 0.214294 17.5982 0.214294C19.5982 0.214294 21.1652 0.767866 22.2991 1.87501C23.433 2.98215 24 4.51787 24 6.48215C24 8.45537 22.9777 10.4643 20.933 12.5089L12.5893 20.5447C12.4286 20.7054 12.2321 20.7857 12 20.7857Z"  stroke="black"/>
</svg>
