<svg id="Layer_1" data-name="Layer 1" xmlns="http://www.w3.org/2000/svg" viewBox="0 0 512 512"><title>update-refresh-arrow3-flat</title><path d="M55,9.14H457a55,55,0,0,1,55,55V447.88a55,55,0,0,1-55,55H55a55,55,0,0,1-55-55V64.13a55,55,0,0,1,55-55Z" transform="translate(512) rotate(90)" fill="#e6d6a6"/><rect x="20.24" y="11.1" width="471.53" height="489.81" rx="43.89" ry="43.89" fill="#b94355"/><path d="M397.45,292.07a18.22,18.22,0,0,1-21.9-3.41c-8.9,66.38-65.9,117.73-134.67,117.73C166,406.39,105,345.44,105,270.51c0-67.92,50.09-124.35,115.26-134.32a18.25,18.25,0,0,1,23.67-27.44l41.2,27.88a22,22,0,0,1-.25,37.12l-41.59,27.32A18.24,18.24,0,0,1,220,173.37,99.37,99.37,0,1,0,339.34,283.92,18.24,18.24,0,0,1,312.81,259L344,220.27a22,22,0,0,1,37,3.33l23.77,43.71a18.25,18.25,0,0,1-7.31,24.76Z" fill="#eedaa6"/></svg>