<svg width="49" height="54" viewBox="0 0 49 54" fill="none" xmlns="http://www.w3.org/2000/svg">
<path d="M5.23957 53.5H20.7707C31.9584 53.5 40.6453 48.3761 45.0007 40.127C46.1022 38.0539 46.9209 35.7766 47.4389 33.3384C47.8676 31.3334 48.0879 29.2139 48.0879 27.0015C48.0879 11.4038 37.0878 0.5 20.7707 0.5H5.23957V0.509283C5.01033 0.503094 4.7811 0.5 4.5489 0.5H0.00893108V0.809417H0V5.53112C0 12.3259 1.685 18.2358 4.67095 22.877C5.68612 24.452 6.85014 25.8846 8.14812 27.1532C6.85014 28.4218 5.68612 29.8513 4.67095 31.4262C1.685 36.0675 0 41.9773 0 48.7721V53.4938H0.00893108V53.5031H5.23957V53.5ZM5.40033 48.6298C5.34674 48.6298 5.29315 48.636 5.23957 48.636C5.04904 48.6453 4.85851 48.6483 4.665 48.6514C4.665 48.3946 4.67393 48.144 4.68584 47.8903C4.95079 40.2817 7.78492 34.2326 12.3636 30.4206C14.0456 29.0159 15.9658 27.9143 18.0854 27.1532C15.9688 26.3889 14.0486 25.2905 12.3636 23.8826C7.78492 20.0706 4.94782 14.0215 4.68584 6.41296C4.67095 6.06022 4.66202 5.70748 4.66202 5.35166C4.85553 5.35166 5.04606 5.35784 5.23957 5.36713C5.29315 5.36713 5.34674 5.36713 5.40033 5.37331C15.8497 5.76318 23.2506 11.6081 25.6858 20.3831C26.1681 22.122 26.4539 23.9785 26.5313 25.9279C26.5461 26.2868 26.5521 26.6426 26.5521 27.0015C26.5521 27.4626 26.5402 27.9205 26.5164 28.3723C26.4181 30.3247 26.1085 32.1843 25.5994 33.9232C23.0809 42.5312 15.7306 48.2399 5.40033 48.6298ZM42.768 27.2274C42.7501 29.5759 42.4345 31.7882 41.8391 33.8428C39.3176 42.5993 31.8036 48.3792 21.2441 48.6422C26.3407 45.1024 29.8477 39.799 31.2201 33.3322C31.616 31.4788 31.8333 29.5233 31.8631 27.4904C31.8691 27.3264 31.8691 27.1655 31.8691 26.9985C31.8691 26.9335 31.8691 26.8685 31.8691 26.8066C31.8601 24.7768 31.6607 22.8337 31.2885 20.9803C29.9608 14.3681 26.4211 8.95017 21.2441 5.35166C31.8929 5.62085 39.4396 11.4936 41.9046 20.3677C42.4762 22.4284 42.7739 24.65 42.7739 26.9954V27.2212L42.768 27.2274Z" fill="#023020"/>
</svg>
