<svg xmlns="http://www.w3.org/2000/svg" width="200" height="200" viewBox="0 0 200 200">
  <circle cx="100" cy="100" r="90" fill="#f2f2f2" stroke="#ccc" stroke-width="4" />
  <path d="M83.9,108.3c2.6-1.3,5.7,0.2,6.9,2.7c1.3,2.6-0.2,5.7-2.7,6.9l-22.2,11.1c-2.6,1.3-5.7-0.2-6.9-2.7c-1.3-2.6,0.2-5.7,2.7-6.9L83.9,108.3z" fill="#ff527f" />
  <path d="M117.6,108.3c-2.6-1.3-5.7,0.2-6.9,2.7c-1.3,2.6,0.2,5.7,2.7,6.9l22.2,11.1c2.6,1.3,5.7-0.2,6.9-2.7c1.3-2.6-0.2-5.7-2.7-6.9L117.6,108.3z" fill="#ff527f" />
  <path d="M100,83.9c1.3-2.6,0.2-5.7-2.7-6.9l-11.1-22.2c-2.6-1.3-5.7,0.2-6.9,2.7c-1.3,2.6,0.2,5.7,2.7,6.9l11.1,22.2C94.3,88.3,97.4,86.8,100,83.9z" fill="#ff527f" />
  <circle cx="100" cy="100" r="40" fill="#fff" />
  <text x="100" y="105" text-anchor="middle" font-size="24" fill="#777">No Data</text>
</svg>
