<svg width="56" height="14" viewBox="0 0 56 14" fill="none" xmlns="http://www.w3.org/2000/svg">
<path d="M21.4005 5.70315C21.2597 6.75931 20.4148 6.75931 19.6403 6.75931H19.2178L19.5698 4.7174C19.5698 4.57658 19.7107 4.50617 19.8515 4.50617H20.0627C20.626 4.50617 21.1189 4.50617 21.4005 4.78781C21.4005 5.06946 21.4005 5.3511 21.4005 5.70315ZM21.0485 2.88673H18.0208C17.8096 2.88673 17.6688 3.02755 17.5984 3.23878L16.4014 10.984C16.4014 11.1248 16.4718 11.2656 16.683 11.2656H18.0912C18.3025 11.2656 18.4433 11.1248 18.5137 10.9135L18.8657 8.80122C18.8657 8.58999 19.077 8.44917 19.2882 8.44917H20.274C22.2455 8.44917 23.372 7.46342 23.7241 5.56233C23.8649 4.7174 23.7241 4.08371 23.372 3.59083C22.8087 3.16837 22.0342 2.88673 21.0485 2.88673Z" fill="#263577"/>
<path d="M28.0192 8.51961C27.8784 9.36454 27.2447 9.92782 26.3998 9.92782C25.9773 9.92782 25.6253 9.787 25.414 9.50536C25.2028 9.22372 25.1324 8.87166 25.2028 8.51961C25.3436 7.67468 25.9773 7.1114 26.8223 7.1114C27.2447 7.1114 27.5968 7.25222 27.808 7.53386C27.9488 7.74509 28.0896 8.09715 28.0192 8.51961ZM29.9907 5.70318H28.5825C28.4417 5.70318 28.3713 5.77359 28.3009 5.91442L28.2305 6.33688L28.1601 6.19606C27.8784 5.7736 27.1743 5.56236 26.4702 5.56236C24.8508 5.56236 23.5129 6.75935 23.2313 8.4492C23.0905 9.29413 23.3017 10.0686 23.7946 10.6319C24.217 11.1248 24.8507 11.336 25.6253 11.336C26.8927 11.336 27.5968 10.4911 27.5968 10.4911L27.5264 10.9136C27.5264 11.0544 27.5968 11.1952 27.808 11.1952H29.0754C29.2866 11.1952 29.4274 11.0544 29.4978 10.8432L30.2724 5.91442C30.2724 5.84401 30.202 5.70318 29.9907 5.70318Z" fill="#263577"/>
<path d="M37.6657 5.70323H36.1871C36.0463 5.70323 35.9055 5.77364 35.8351 5.91446L33.8636 8.87171L33.0186 6.05529C32.9482 5.84405 32.8074 5.77364 32.5962 5.77364H31.188C31.0471 5.77364 30.9063 5.91446 30.9767 6.12569L32.5962 10.7728L31.1175 12.8851C30.9767 13.0259 31.1176 13.3076 31.3288 13.3076H32.8074C32.9482 13.3076 33.0891 13.2372 33.1595 13.0964L37.9474 6.12569C38.0178 5.91446 37.877 5.70323 37.6657 5.70323Z" fill="#263577"/>
<path d="M42.8058 5.70315C42.665 6.75931 41.8201 6.75931 41.0455 6.75931H40.6231L40.9751 4.7174C40.9751 4.57658 41.116 4.50617 41.2568 4.50617H41.468C42.0313 4.50617 42.5242 4.50617 42.8058 4.78781C42.8762 5.06946 42.8762 5.3511 42.8058 5.70315ZM42.4537 2.88673H39.4261C39.2149 2.88673 39.074 3.02755 39.0036 3.23878L37.8066 10.984C37.8066 11.1248 37.8771 11.2656 38.0883 11.2656H39.6373C39.7781 11.2656 39.919 11.1952 39.919 10.984L40.271 8.80122C40.271 8.58999 40.4822 8.44917 40.6935 8.44917H41.6792C43.6507 8.44917 44.7773 7.46342 45.1294 5.56233C45.2702 4.7174 45.1294 4.08371 44.7773 3.59083C44.2844 3.16837 43.5099 2.88673 42.4537 2.88673Z" fill="#2199D6"/>
<path d="M49.4948 8.51961C49.354 9.36454 48.7203 9.92782 47.8754 9.92782C47.4529 9.92782 47.1009 9.787 46.8896 9.50536C46.6784 9.22372 46.608 8.87166 46.6784 8.51961C46.8192 7.67468 47.4529 7.1114 48.2978 7.1114C48.7203 7.1114 49.0724 7.25222 49.2836 7.53386C49.4244 7.74509 49.5652 8.09715 49.4948 8.51961ZM51.4663 5.70318H50.0581C49.9173 5.70318 49.8469 5.77359 49.7764 5.91442L49.7061 6.33688L49.6356 6.19606C49.354 5.7736 48.6499 5.56236 47.9458 5.56236C46.3263 5.56236 44.9885 6.75935 44.7069 8.4492C44.5661 9.29413 44.7773 10.0686 45.2702 10.6319C45.6926 11.1248 46.3263 11.336 47.1008 11.336C48.3682 11.336 49.0723 10.4911 49.0723 10.4911L49.0019 10.9136C49.0019 11.0544 49.0724 11.1952 49.2836 11.1952H50.551C50.7622 11.1952 50.903 11.0544 50.9734 10.8432L51.748 5.91442C51.748 5.84401 51.6071 5.70318 51.4663 5.70318Z" fill="#2199D6"/>
<path d="M53.1561 3.09796L51.8887 10.984C51.8887 11.1248 51.9591 11.2656 52.1703 11.2656H53.4377C53.6489 11.2656 53.7898 11.1248 53.8602 10.9135L55.0572 3.16837C55.0572 3.02755 54.9867 2.88673 54.7755 2.88673H53.3673C53.2969 2.88673 53.2265 3.02755 53.1561 3.09796Z" fill="#2199D6"/>
<path d="M3.86809 12.7443L4.07932 11.2657H3.58644H1.12207L2.81193 0.492872C2.81193 0.492872 2.81193 0.422462 2.88234 0.422462H2.95275H7.10698C8.44478 0.422462 9.43053 0.704106 9.9234 1.26739C10.1346 1.54903 10.2755 1.83068 10.3459 2.11232C10.4163 2.46437 10.4163 2.81642 10.3459 3.3093V3.59094L10.5571 3.73176C10.7683 3.80217 10.9092 3.943 11.05 4.08382C11.2612 4.29505 11.402 4.57669 11.402 4.92874C11.4724 5.2808 11.4724 5.70326 11.3316 6.19614C11.1908 6.75942 11.05 7.18188 10.8387 7.60435C10.6275 7.9564 10.3459 8.23804 10.0642 8.51969C9.78258 8.73092 9.36011 8.87174 9.00806 9.01256C8.5856 9.08297 8.16314 9.15338 7.67026 9.15338H7.31821C7.10698 9.15338 6.89575 9.22379 6.68452 9.36461C6.5437 9.50543 6.40288 9.71667 6.33246 9.9279V10.0687L5.91 12.6739V12.7443V12.8147C5.91 12.8147 5.90999 12.8147 5.83958 12.8147H3.86809V12.7443Z" fill="#263577"/>
<path d="M10.8394 3.30919C10.8394 3.3796 10.8394 3.45001 10.769 3.52042C10.2057 6.33685 8.37504 7.25218 5.98108 7.25218H4.78409C4.50244 7.25218 4.22081 7.46342 4.22081 7.74506L3.58711 11.6881L3.44629 12.8146C3.44629 13.0259 3.58711 13.1667 3.72793 13.1667H5.91066C6.1923 13.1667 6.40353 12.9554 6.40353 12.7442V12.6034L6.826 10.0686V9.92779C6.89641 9.64615 7.10764 9.50533 7.31887 9.50533H7.67093C9.78325 9.50533 11.4027 8.6604 11.8252 6.19603C12.0364 5.13987 11.8956 4.29494 11.4027 3.73165C11.2619 3.59083 11.0506 3.45001 10.8394 3.30919Z" fill="#2199D6"/>
<path d="M10.276 3.09796C10.2056 3.09796 10.1352 3.02755 9.99437 3.02755C9.92396 3.02755 9.78314 2.95714 9.71273 2.95714C9.36067 2.88673 9.00862 2.88673 8.65657 2.88673H5.41768C5.34727 2.88673 5.27686 2.88673 5.20645 2.95714C5.06563 3.02755 4.92481 3.16837 4.92481 3.30919L4.2207 7.67465V7.81547C4.29111 7.53383 4.50234 7.3226 4.78398 7.3226H5.98097C8.37493 7.3226 10.2056 6.33685 10.7689 3.59083C10.7689 3.52042 10.7689 3.45001 10.8393 3.3796C10.6985 3.30919 10.5577 3.23878 10.4168 3.16837C10.3464 3.09796 10.276 3.09796 10.276 3.09796Z" fill="#252C5E"/>
<path d="M4.92483 3.30933C4.92483 3.16851 5.06565 3.02769 5.20647 2.95728C5.27688 2.95728 5.3473 2.88687 5.41771 2.88687H8.65659C9.00864 2.88687 9.43111 2.88687 9.71275 2.95728C9.78316 2.95728 9.92399 2.95728 9.9944 3.02769C10.0648 3.02769 10.1352 3.0981 10.276 3.0981C10.3464 3.0981 10.3464 3.0981 10.4169 3.16851C10.5577 3.23892 10.6985 3.30933 10.8393 3.37974C10.9801 2.32358 10.8393 1.61947 10.276 0.985778C9.64234 0.281672 8.51577 3.05176e-05 7.10756 3.05176e-05H2.95333C2.67169 3.05176e-05 2.39005 0.21126 2.39005 0.492903L0.700195 11.3361C0.700195 11.5474 0.841017 11.7586 1.05225 11.7586H3.58703L4.22073 7.67479L4.92483 3.30933Z" fill="#263577"/>
</svg>
