<svg width="53" height="15" viewBox="0 0 53 15" fill="none" xmlns="http://www.w3.org/2000/svg">
<path fill-rule="evenodd" clip-rule="evenodd" d="M2.70058 5.65997C2.59046 5.93526 2.53541 6.22889 2.462 6.52252C2.27848 7.40343 2.13166 8.33938 1.92979 9.22029C1.52604 9.22029 1.10394 9.22029 0.700195 9.22029C1.159 6.24724 2.0032 3.3476 2.37024 0.154332C2.77398 0.154332 3.17773 0.154332 3.56313 0.154332C3.50807 0.447966 3.43466 0.723249 3.39796 1.01688C3.39796 1.03524 3.36125 1.05359 3.36125 1.09029C3.91182 0.374557 4.75602 -0.120949 6.09572 0.0258677C7.41707 0.154333 8.13281 1.2004 8.18787 2.43C8.31633 4.77907 7.06839 6.90792 4.49909 6.7244C3.65489 6.66934 3.01256 6.35735 2.70058 5.65997ZM4.42568 1.2004C3.3429 1.75097 2.29683 4.28356 3.52642 5.36634C4.33392 6.08207 5.60021 5.69668 6.13242 5.036C6.73805 4.28356 7.28861 2.11801 6.371 1.34722C6.05902 1.09029 5.56351 0.998531 5.10471 1.05359C4.77437 1.07194 4.6092 1.10864 4.42568 1.2004Z" fill="#030000"/>
<path fill-rule="evenodd" clip-rule="evenodd" d="M13.8583 6.59589C13.4729 6.59589 13.0875 6.59589 12.6838 6.59589C12.7388 6.22885 12.8122 5.88015 12.8856 5.53146C12.5369 6.04532 11.9313 6.63259 11.0504 6.72435C9.78411 6.85282 8.62793 6.21049 8.51782 5.16442C8.48111 4.81573 8.49946 4.24682 8.7931 3.80636C9.52718 2.65018 11.4358 2.57677 13.3261 2.63183C13.895 0.539686 10.8485 0.851671 9.80247 1.5307C9.85752 1.12695 9.94928 0.741558 10.0043 0.337811C11.8946 -0.249457 14.4456 -0.10264 14.5924 1.93445C14.6474 2.74194 14.4089 3.53108 14.262 4.30187C14.1152 5.05431 13.9684 5.78839 13.8583 6.59589ZM9.85752 4.92585C9.89423 5.45806 10.4815 5.75169 10.9587 5.75169C12.2617 5.77004 12.8856 4.63221 13.0875 3.51273C11.6193 3.43932 9.76576 3.62284 9.85752 4.92585Z" fill="#030000"/>
<path fill-rule="evenodd" clip-rule="evenodd" d="M16.6845 0.172607C16.9598 1.87936 17.2902 3.53105 17.5471 5.2745C18.5197 3.60446 19.419 1.861 20.3733 0.172607C20.8138 0.172607 21.2542 0.172607 21.713 0.172607C20.5385 2.30146 19.1621 4.63218 17.8407 6.87114C17.437 7.56852 17.0332 8.50448 16.446 8.96328C15.9321 9.36703 14.9411 9.45879 14.1152 9.29362C14.1336 8.92657 14.2621 8.65129 14.2804 8.3026C14.4456 8.28425 14.6474 8.39436 14.8493 8.39436C15.7486 8.39436 16.2441 7.56852 16.5744 6.92619C16.189 4.70559 15.7669 2.50333 15.3815 0.264368C15.3448 0.227664 15.3632 0.209312 15.3815 0.172607C15.822 0.172607 16.2624 0.172607 16.6845 0.172607Z" fill="#030000"/>
<path fill-rule="evenodd" clip-rule="evenodd" d="M22.2455 10.3581C21.9702 11.918 21.6215 13.3862 21.3462 14.9461C20.4837 14.9461 19.6211 14.9461 18.7402 14.9461C19.144 13.0375 19.4927 11.1472 19.8781 9.25696C20.2635 7.38505 20.7223 5.51313 20.9425 3.5311C21.6399 3.47604 22.5758 3.47604 23.2732 3.5311C23.2549 3.97155 23.1447 4.33859 23.108 4.76069C23.7871 4.08166 24.5212 3.18241 26.0811 3.32922C27.5676 3.47604 28.3935 4.72399 28.5036 6.30227C28.7054 9.01839 27.3841 11.6794 24.9983 11.863C23.5118 11.9731 22.8144 11.2941 22.2455 10.3581ZM23.2916 6.30227C22.6859 7.16482 22.4841 8.81651 23.2549 9.45884C23.732 9.86259 24.6129 9.66071 25.0167 9.33037C25.5305 8.90827 25.8976 8.10078 25.8792 7.09141C25.8609 6.1738 25.4571 5.40301 24.4844 5.53148C23.9155 5.60489 23.5668 5.89852 23.2916 6.30227Z" fill="#009651"/>
<path fill-rule="evenodd" clip-rule="evenodd" d="M35.6424 11.6977C34.9634 11.6794 34.1926 11.7345 33.5687 11.661C33.6421 11.294 33.6421 10.8352 33.6971 10.4682C33.4952 10.67 33.3484 10.9637 33.0915 11.2022C32.2473 11.973 30.357 12.1382 29.4211 11.3674C28.4117 10.5232 28.5769 8.50448 29.4211 7.64193C30.3937 6.63256 32.2289 6.37563 34.1192 6.57751C34.3027 5.80672 33.7889 5.32956 33.1466 5.2378C32.2106 5.10933 30.9627 5.51308 30.4121 5.84342C30.5222 5.18274 30.5589 4.46701 30.6874 3.80633C31.348 3.56775 31.972 3.38423 32.7612 3.34753C34.9451 3.20071 36.4499 3.9348 36.5968 5.80671C36.6702 6.79773 36.3765 7.82545 36.1563 8.79811C35.9544 9.75242 35.8076 10.7251 35.6424 11.6977ZM33.0181 8.02732C32.2289 8.04568 31.3664 8.3026 31.1829 8.88987C31.0361 9.40373 31.4031 9.88089 31.7885 9.9543C32.9997 10.2112 33.8256 9.01834 33.9173 8.06403C33.6421 8.00897 33.2383 8.02732 33.0181 8.02732Z" fill="#009651"/>
<path fill-rule="evenodd" clip-rule="evenodd" d="M43.6443 3.80634C43.5158 4.46702 43.2772 5.01758 43.1488 5.67826C42.5064 5.45803 41.7356 5.12769 40.7263 5.23781C40.3225 5.29286 39.9188 5.49474 39.9188 5.89848C39.9371 6.39399 40.6896 6.57751 41.1484 6.76103C41.7907 7.03632 42.5615 7.40336 42.8735 7.95392C43.4057 8.90823 42.8735 10.303 42.3046 10.8903C41.8274 11.3858 40.9282 11.7895 40.0105 11.8629C38.8177 11.9547 37.5697 11.7345 36.542 11.4592C36.6888 10.7801 36.854 10.1562 37.0375 9.53221C37.7165 9.80749 38.4873 10.0644 39.5334 9.97266C40.0289 9.9176 40.5795 9.75243 40.5061 9.16516C40.451 8.68801 39.7353 8.52284 39.2031 8.30261C38.212 7.89887 37.478 7.38501 37.478 6.0453C37.478 3.29248 41.2952 2.83368 43.6443 3.80634Z" fill="#009651"/>
<path fill-rule="evenodd" clip-rule="evenodd" d="M50.1411 3.80636C49.9943 4.44868 49.7924 5.0543 49.6089 5.67827C49.0033 5.4397 48.2142 5.12771 47.2048 5.23782C46.8011 5.27453 46.3973 5.4764 46.3973 5.8985C46.4157 6.41236 47.3333 6.68764 47.7554 6.87116C48.6179 7.23821 49.4438 7.64195 49.5539 8.63297C49.664 9.60563 49.2602 10.3948 48.6913 10.927C48.1591 11.4408 47.37 11.7895 46.4891 11.8629C45.2778 11.9547 44.1033 11.7345 43.0205 11.4592C43.1306 10.7618 43.3508 10.1929 43.4793 9.53222C43.9748 9.67904 44.452 9.91762 45.0392 9.97268C45.8651 10.0461 46.9846 9.99103 46.9662 9.27529C46.9479 8.5045 45.3512 8.33933 44.7273 7.84383C44.0482 7.31161 43.6261 6.00861 44.1583 4.94419C45.0392 3.2925 48.0673 2.92546 50.1411 3.80636Z" fill="#009651"/>
<path d="M51.1135 4.65058H50.7832L50.8016 4.52211H51.609L51.5907 4.65058H51.2604L51.0768 5.65994H50.93L51.1135 4.65058Z" fill="#009651"/>
<path d="M52.4715 5.65993L52.5449 5.05431C52.5632 4.9442 52.5816 4.77903 52.5999 4.66891C52.5449 4.77903 52.4898 4.92584 52.4164 5.03596L52.0861 5.65993H51.976L51.8842 5.05431C51.8659 4.92584 51.8475 4.79738 51.8475 4.66891C51.8292 4.77903 51.7925 4.9442 51.7558 5.05431L51.6089 5.65993H51.4805L51.7741 4.52209H51.9576L52.0494 5.16442C52.0677 5.25618 52.0677 5.36629 52.0677 5.45805C52.1044 5.36629 52.1595 5.27453 52.1962 5.18277L52.5449 4.52209H52.7284L52.5816 5.65993H52.4715Z" fill="#009651"/>
</svg>
