<svg width="42" height="13" viewBox="0 0 42 13" fill="none" xmlns="http://www.w3.org/2000/svg">
<path d="M38.4204 0.17746H35.8781C35.1095 0.17746 34.5183 0.413952 34.1635 1.18255L29.3154 12.2386H32.7446C32.7446 12.2386 33.3358 10.7605 33.454 10.4058C33.8088 10.4058 37.1788 10.4058 37.6518 10.4058C37.77 10.8196 38.0656 12.1794 38.0656 12.1794H41.14L38.4204 0.17746ZM34.4 7.92258C34.6956 7.2131 35.7007 4.55257 35.7007 4.55257C35.7007 4.61169 35.9963 3.84309 36.1146 3.42923L36.3511 4.49344C36.3511 4.49344 37.0014 7.39047 37.1197 7.9817H34.4V7.92258Z" fill="#3362AB"/>
<path d="M29.5519 8.27729C29.5519 10.7605 27.3053 12.4159 23.817 12.4159C22.3389 12.4159 20.92 12.1203 20.1514 11.7656L20.6244 9.04589L21.0382 9.22326C22.1024 9.69624 22.8119 9.87361 24.1126 9.87361C25.0586 9.87361 26.0637 9.51888 26.0637 8.69115C26.0637 8.15904 25.6498 7.80431 24.3491 7.21308C23.1075 6.62184 21.4521 5.67588 21.4521 3.96131C21.4521 1.59638 23.7579 6.10352e-05 27.0096 6.10352e-05C28.2512 6.10352e-05 29.3154 0.236553 29.9658 0.532169L29.4928 3.13358L29.2563 2.89709C28.6651 2.6606 27.8965 2.42411 26.7731 2.42411C25.5316 2.48323 24.9403 3.01534 24.9403 3.48832C24.9403 4.02043 25.6498 4.43429 26.7731 4.9664C28.6651 5.85324 29.5519 6.85834 29.5519 8.27729Z" fill="#3362AB"/>
<path d="M0.700195 0.295658L0.759318 0.059166H5.8439C6.55338 0.059166 7.08549 0.295658 7.26286 1.06426L8.38619 6.38533C7.26286 3.54743 4.66144 1.24163 0.700195 0.295658Z" fill="#F9B50B"/>
<path d="M15.5403 0.177402L10.3966 12.1794H6.9083L3.95215 2.12846C6.08058 3.48829 7.85427 5.61672 8.50462 7.0948L8.85936 8.33638L12.052 0.118279H15.5403V0.177402Z" fill="#3362AB"/>
<path d="M16.9004 0.118279H20.1521L18.0828 12.1794H14.8311L16.9004 0.118279Z" fill="#3362AB"/>
</svg>
