<svg width="25" height="26" viewBox="0 0 13 11" fill="none" xmlns="http://www.w3.org/2000/svg">
<path d="M11.5329 1.22958C11.2363 0.89679 10.8746 0.628472 10.4701 0.441266C10.0656 0.254061 9.6269 0.151961 9.1813 0.141298C8.73608 0.131539 8.29348 0.211756 7.88001 0.377144C7.46654 0.542533 7.09071 0.789687 6.77505 1.1038L6.25005 1.62333L5.83989 1.21864C4.56567 -0.0610462 2.48755 -0.170421 1.21333 0.983485C0.881715 1.28097 0.614266 1.64297 0.427335 2.04734C0.240403 2.45172 0.137917 2.88998 0.126144 3.33531C0.114371 3.78065 0.193558 4.22371 0.358862 4.6374C0.524167 5.05108 0.772115 5.42671 1.08755 5.7413L5.63208 10.2858C5.71293 10.3675 5.80918 10.4324 5.91525 10.4766C6.02132 10.5209 6.13511 10.5436 6.25005 10.5436C6.36498 10.5436 6.47877 10.5209 6.58484 10.4766C6.69091 10.4324 6.78716 10.3675 6.86801 10.2858L11.2977 5.85614C12.5774 4.58192 12.6813 2.5038 11.5329 1.22958Z" fill="white" stroke="black" />
</svg>
